<svg width="192" height="62" viewBox="0 0 192 62" fill="none" xmlns="http://www.w3.org/2000/svg">
<path d="M169.376 48.5469C168.591 47.8086 167.684 47.2064 166.693 46.7662C165.797 46.3769 164.827 46.1775 163.847 46.181C163.068 46.1522 162.292 46.2767 161.564 46.5472C160.836 46.8176 160.17 47.2285 159.607 47.7554C159.062 48.2819 158.635 48.9131 158.351 49.6094C158.068 50.3057 157.935 51.0519 157.961 51.801C157.93 52.5432 158.06 53.2834 158.342 53.9732C158.623 54.663 159.05 55.2869 159.594 55.8044C160.164 56.3234 160.833 56.7264 161.563 56.9902C162.293 57.254 163.069 57.3732 163.847 57.341C164.903 57.335 165.949 57.141 166.934 56.7685C168.037 56.3445 169.072 55.7675 170.008 55.0551L169.698 59.8331C168.808 60.3647 167.843 60.766 166.835 61.0245C165.783 61.306 164.697 61.4476 163.606 61.4455C162.441 61.4469 161.281 61.2795 160.166 60.9487C159.078 60.6232 158.05 60.1285 157.122 59.4837C155.861 58.6246 154.828 57.4811 154.113 56.1496C153.409 54.8224 153.049 53.3466 153.063 51.8515C153.054 50.5641 153.316 49.2887 153.833 48.1049C154.356 46.9312 155.123 45.8773 156.086 45.0107C157.086 44.1145 158.254 43.4168 159.526 42.9564C160.844 42.4785 162.239 42.2375 163.645 42.2449C164.753 42.2373 165.856 42.379 166.925 42.6659C167.976 42.9468 168.98 43.372 169.909 43.9288L169.389 48.5342L169.376 48.5469ZM144.679 60.8435V42.8553H149.551V60.8435H144.679ZM126.264 60.8435V42.8553H131.51C132.826 42.83 134.14 42.9329 135.435 43.1626C136.307 43.3381 137.137 43.6692 137.886 44.1393C138.613 44.5832 139.219 45.1927 139.653 45.9158C140.064 46.5949 140.281 47.37 140.281 48.1596C140.299 49.2247 139.956 50.2656 139.305 51.119C138.575 52.031 137.597 52.7238 136.484 53.1186L142.684 60.8435H137.125L131.682 53.7796H130.99V60.8435H126.264ZM131.789 46.1094H130.99V51.119H132.017C133.247 51.119 134.184 50.9001 134.829 50.4623C135.144 50.2559 135.398 49.9735 135.569 49.6423C135.739 49.3111 135.819 48.9425 135.801 48.5721C135.83 48.2071 135.758 47.8411 135.592 47.5128C135.426 47.1846 135.173 46.9063 134.859 46.7072C134.231 46.3199 133.208 46.1305 131.789 46.1305V46.1094ZM109.862 60.8435V42.8553H122.429V46.5641H114.6V49.8182H121.311V53.5059H114.6V57.0547H122.537V60.8435H109.862ZM82.7273 60.8435L86.9624 42.2618H87.3106L95.0197 53.99L102.273 42.2702H102.638L106.908 60.8435H102.277L100.558 52.6261L95.0842 61.5002H94.7617L88.8714 52.5082L87.0828 60.8435H82.7273ZM42.4235 57.08C42.8845 57.2652 43.3587 57.4172 43.8424 57.5346C44.2144 57.6311 44.5969 57.6834 44.9817 57.6904C45.9534 57.6904 46.637 57.4125 47.0498 56.8484C47.4626 56.2843 47.6689 55.3414 47.6689 54.0027V42.8553H52.5704V55.0298C52.5704 57.1052 51.9642 58.6965 50.7517 59.791C49.5392 60.8856 47.7936 61.437 45.5063 61.437C45.0752 61.4371 44.6444 61.4118 44.2164 61.3613C43.77 61.309 43.3266 61.2346 42.8879 61.1382L42.4235 57.0884V57.08ZM22.4135 60.8435V42.2702H22.8821L35.5829 52.7945V42.8553H40.0717V61.5339H39.6417L26.9065 51.0348V60.8435H22.4135ZM4.90147 60.8435H0L10.3963 42.287H10.7058L20.8828 60.8435H15.7879L10.349 50.6812L4.90147 60.8435ZM66.0795 60.8435H61.1824L71.5786 42.287H71.8925L82.0609 60.8435H76.9617L71.5228 50.6728L66.0795 60.8435ZM176.019 60.8435H171.121L181.518 42.287H181.832L192 60.8435H186.905L181.466 50.6728L176.019 60.8435Z" fill="#07038C"/>
<path fill-rule="evenodd" clip-rule="evenodd" d="M90.948 0.8927H79.2791L85.9906 16.5066C86.7903 18.3588 88.8713 19.8112 90.475 19.8112H99.2289C100.833 19.8112 101.357 18.3715 100.579 16.5066L95.4496 4.19734C94.6671 2.33243 92.5732 0.8927 90.9652 0.8927H90.948Z" fill="#07038C"/>
<path fill-rule="evenodd" clip-rule="evenodd" d="M79.4425 0.8927H91.1115L75.9169 33.5896C75.057 35.4124 73.0362 36.8943 71.4325 36.8943H62.6786C61.0749 36.8943 60.4816 35.4166 61.3286 33.5896L74.9581 4.19734C75.818 2.37032 77.8388 0.8927 79.4425 0.8927Z" fill="#0339D9"/>
<path fill-rule="evenodd" clip-rule="evenodd" d="M96.1719 32.032C118.1 31.4174 135.788 28.3317 135.693 25.1449C135.599 21.9582 117.751 19.8659 95.8322 20.4806C73.9132 21.0952 56.2163 24.1809 56.3109 27.3719C56.3463 27.6016 56.4354 27.8202 56.5711 28.0108C56.7068 28.2013 56.8855 28.3587 57.0934 28.4706C56.9534 28.3144 56.8689 28.118 56.8527 27.9107C56.771 25.0271 73.767 22.2108 94.8132 21.6214C115.859 21.032 132.989 22.8843 133.079 25.7722C133.169 28.6601 116.461 31.4216 95.6732 32.0447H96.1762L96.1719 32.032Z" fill="#FFD700"/>
<path fill-rule="evenodd" clip-rule="evenodd" d="M97.2254 37.0543H108.894L104.277 25.6628C103.516 23.7895 101.396 22.3582 99.7922 22.3582H91.0383C89.4346 22.3582 88.8886 23.7979 89.6883 25.6628L92.741 33.7497C93.459 35.644 95.6216 37.0543 97.2254 37.0543Z" fill="#07038C"/>
<path fill-rule="evenodd" clip-rule="evenodd" d="M108.585 37.0459H96.9158L112.648 4.01215C113.508 2.19355 115.524 0.70752 117.132 0.70752H125.882C127.49 0.70752 128.1 2.19355 127.236 4.01215L113.078 33.7412C112.218 35.5598 110.197 37.0459 108.593 37.0459H108.585Z" fill="#0339D9"/>
</svg>
